<svg width="9" height="9" viewBox="0 0 9 9" fill="none" xmlns="http://www.w3.org/2000/svg">
<path d="M8.25026 7.49744C8.05141 7.49744 7.86071 7.41845 7.72011 7.27785C7.5795 7.13724 7.50051 6.94654 7.50051 6.7477V2.55663L1.28513 8.77951C1.14395 8.92069 0.95247 9 0.752812 9C0.553154 9 0.361673 8.92069 0.220494 8.77951C0.0793139 8.63833 1.48757e-09 8.44685 0 8.24719C-1.48757e-09 8.04753 0.0793139 7.85605 0.220494 7.71487L6.44337 1.49949H2.2523C2.05346 1.49949 1.86276 1.4205 1.72215 1.27989C1.58155 1.13929 1.50256 0.948589 1.50256 0.749744C1.50256 0.5509 1.58155 0.360199 1.72215 0.219595C1.86276 0.07899 2.05346 0 2.2523 0H8.25026C8.4491 0 8.6398 0.07899 8.78041 0.219595C8.92101 0.360199 9 0.5509 9 0.749744V6.7477C9 6.94654 8.92101 7.13724 8.78041 7.27785C8.6398 7.41845 8.4491 7.49744 8.25026 7.49744Z" fill="#FAF9F5"/>
</svg>
