<svg width="539" height="37" viewBox="0 0 539 37" fill="none" xmlns="http://www.w3.org/2000/svg">
<path d="M0 36.0658L12.3357 0.644032H19.7668L32.2511 36.0658H24.7704L22.3925 28.5355H9.61093L7.28251 36.0658H0ZM14.4659 12.8311L11.2953 23.0365H20.6585L17.4879 12.8311L16.0512 7.38159H15.9522C15.3577 9.75955 14.8623 11.576 14.4659 12.8311Z" fill="#1F293A"/>
<path d="M32.9273 23.5815V17.2898H47.096V23.5815H32.9273Z" fill="#1F293A"/>
<path d="M51.1978 36.0658V0.644032H76.5627V6.73756H58.3812V15.2586H73.7884V21.4017H58.3812V36.0658H51.1978Z" fill="#1F293A"/>
<path d="M85.0578 10.6513V14.7136H85.2064C85.9991 13.2274 86.8743 12.1375 87.8321 11.4439C88.7899 10.7173 89.9954 10.354 91.4486 10.354C92.1421 10.354 92.6706 10.4201 93.0339 10.5522V16.4476H92.8853C90.6064 16.2164 88.7734 16.7118 87.3862 17.9338C85.9991 19.1558 85.3055 21.0714 85.3055 23.6805V36.0658H78.5679V10.6513H85.0578Z" fill="#1F293A"/>
<path d="M111.212 36.0658C110.882 35.6364 110.618 34.6951 110.42 33.2419H110.321C109.594 34.3318 108.669 35.174 107.546 35.7685C106.423 36.363 104.855 36.6602 102.84 36.6602C100.165 36.6602 98.0179 35.9832 96.3996 34.6291C94.7812 33.275 93.9721 31.3594 93.9721 28.8823C93.9721 26.3062 94.8638 24.4236 96.6473 23.2347C98.4307 22.0127 100.941 21.1705 104.177 20.7081C106.555 20.3778 108.174 20.0475 109.032 19.7173C109.891 19.354 110.321 18.7264 110.321 17.8347C110.321 16.9099 109.957 16.1833 109.231 15.6549C108.504 15.0935 107.447 14.8127 106.06 14.8127C102.989 14.8127 101.354 16.0017 101.155 18.3797H95.161C95.2601 15.9687 96.2344 13.9705 98.084 12.3852C99.9335 10.7999 102.609 10.0073 106.11 10.0073C113.243 10.0073 116.81 13.1283 116.81 19.3705V32.3006C116.81 34.2162 117.108 35.3887 117.702 35.818V36.0658H111.212ZM104.475 31.9539C106.324 31.9539 107.777 31.475 108.834 30.5172C109.924 29.5594 110.469 28.4199 110.469 27.0989V23.2842C109.743 23.7136 108.174 24.209 105.763 24.7704C103.847 25.1998 102.493 25.6952 101.7 26.2567C100.908 26.7851 100.511 27.6108 100.511 28.7337C100.511 30.8805 101.833 31.9539 104.475 31.9539Z" fill="#1F293A"/>
<path d="M121.094 36.0658V10.6513H127.584V14.0696H127.732C129.351 11.3283 131.811 9.95771 135.114 9.95771C136.699 9.95771 138.103 10.3706 139.325 11.1962C140.58 11.9889 141.521 13.0623 142.149 14.4164H142.248C144.097 11.4439 146.64 9.95771 149.877 9.95771C152.519 9.95771 154.567 10.7669 156.02 12.3852C157.506 13.9705 158.249 16.1668 158.249 18.9742V36.0658H151.512V20.1136C151.512 17.2072 150.207 15.754 147.598 15.754C146.178 15.754 145.055 16.2659 144.229 17.2898C143.437 18.2806 143.04 19.6182 143.04 21.3026V36.0658H136.303V20.1136C136.303 17.2072 134.998 15.754 132.389 15.754C131.035 15.754 129.929 16.2659 129.07 17.2898C128.244 18.2806 127.831 19.6182 127.831 21.3026V36.0658H121.094Z" fill="#1F293A"/>
<path d="M174.349 36.8089C170.254 36.8089 167.034 35.5538 164.689 33.0438C162.344 30.5007 161.172 27.264 161.172 23.3337C161.172 19.5356 162.344 16.365 164.689 13.8219C167.034 11.2458 170.039 9.95771 173.705 9.95771C177.702 9.95771 180.79 11.3449 182.97 14.1191C185.149 16.8934 186.239 20.609 186.239 25.2658H167.81C168.074 27.2805 168.751 28.8493 169.841 29.9722C170.931 31.0621 172.417 31.6071 174.3 31.6071C176.777 31.6071 178.412 30.5667 179.204 28.486H185.843C185.347 30.864 184.092 32.8456 182.078 34.4309C180.063 36.0162 177.487 36.8089 174.349 36.8089ZM173.804 15.1595C170.535 15.1595 168.57 16.976 167.909 20.609H179.204C179.105 18.9907 178.56 17.6861 177.57 16.6953C176.579 15.6714 175.324 15.1595 173.804 15.1595Z" fill="#1F293A"/>
<path d="M207.538 36.0658L195.598 0.644032H203.128L209.371 21.1539L210.906 26.8016H211.005C211.567 24.5558 212.079 22.6732 212.541 21.1539L218.734 0.644032H226.016L214.077 36.0658H207.538Z" fill="#1F293A"/>
<path d="M236.759 36.8089C232.664 36.8089 229.444 35.5538 227.099 33.0438C224.754 30.5007 223.581 27.264 223.581 23.3337C223.581 19.5356 224.754 16.365 227.099 13.8219C229.444 11.2458 232.449 9.95771 236.115 9.95771C240.112 9.95771 243.2 11.3449 245.379 14.1191C247.559 16.8934 248.649 20.609 248.649 25.2658H230.22C230.484 27.2805 231.161 28.8493 232.251 29.9722C233.341 31.0621 234.827 31.6071 236.71 31.6071C239.187 31.6071 240.822 30.5667 241.614 28.486H248.253C247.757 30.864 246.502 32.8456 244.488 34.4309C242.473 36.0162 239.897 36.8089 236.759 36.8089ZM236.214 15.1595C232.945 15.1595 230.98 16.976 230.319 20.609H241.614C241.515 18.9907 240.97 17.6861 239.979 16.6953C238.989 15.6714 237.734 15.1595 236.214 15.1595Z" fill="#1F293A"/>
<path d="M258.356 10.6513V14.1191H258.505C260.255 11.3449 262.766 9.95771 266.035 9.95771C268.644 9.95771 270.758 10.8495 272.376 12.6329C273.995 14.3834 274.804 16.6622 274.804 19.4696V36.0658H268.066V20.4604C268.066 19.0732 267.67 17.9503 266.877 17.0916C266.118 16.2329 265.044 15.8035 263.657 15.8035C262.171 15.8035 260.933 16.3485 259.942 17.4384C258.984 18.5283 258.505 19.9319 258.505 21.6494V36.0658H251.767V10.6513H258.356Z" fill="#1F293A"/>
<path d="M276.987 15.11V10.6513H280.504V2.72475H287.093V10.6513H291.453V15.11H287.093V28.5851C287.093 30.2695 287.935 31.1117 289.62 31.1117L291.601 31.0621V36.0162C290.578 36.0823 289.174 36.1153 287.39 36.1153C285.442 36.1153 283.807 35.6529 282.486 34.7281C281.165 33.7704 280.504 32.2016 280.504 30.0218V15.11H276.987Z" fill="#1F293A"/>
<path d="M317.463 36.0658H310.973V33.0933H310.825C309.9 34.3483 308.876 35.2731 307.753 35.8676C306.663 36.4621 305.26 36.7593 303.542 36.7593C300.768 36.7593 298.605 35.9336 297.052 34.2823C295.5 32.6309 294.724 30.4016 294.724 27.5943V10.6513H301.412V26.4548C301.412 29.5264 302.816 31.0621 305.623 31.0621C307.175 31.0621 308.414 30.5337 309.339 29.4768C310.263 28.4199 310.726 27.0328 310.726 25.3154V10.6513H317.463V36.0658Z" fill="#1F293A"/>
<path d="M328.311 10.6513V14.7136H328.46C329.252 13.2274 330.128 12.1375 331.086 11.4439C332.043 10.7173 333.249 10.354 334.702 10.354C335.396 10.354 335.924 10.4201 336.287 10.5522V16.4476H336.139C333.86 16.2164 332.027 16.7118 330.64 17.9338C329.252 19.1558 328.559 21.0714 328.559 23.6805V36.0658H321.821V10.6513H328.311Z" fill="#1F293A"/>
<path d="M350.403 36.8089C346.308 36.8089 343.088 35.5538 340.743 33.0438C338.398 30.5007 337.225 27.264 337.225 23.3337C337.225 19.5356 338.398 16.365 340.743 13.8219C343.088 11.2458 346.093 9.95771 349.759 9.95771C353.756 9.95771 356.844 11.3449 359.023 14.1191C361.203 16.8934 362.293 20.609 362.293 25.2658H343.864C344.128 27.2805 344.805 28.8493 345.895 29.9722C346.985 31.0621 348.471 31.6071 350.354 31.6071C352.831 31.6071 354.466 30.5667 355.258 28.486H361.897C361.401 30.864 360.146 32.8456 358.132 34.4309C356.117 36.0162 353.541 36.8089 350.403 36.8089ZM349.858 15.1595C346.589 15.1595 344.624 16.976 343.963 20.609H355.258C355.159 18.9907 354.614 17.6861 353.623 16.6953C352.633 15.6714 351.378 15.1595 349.858 15.1595Z" fill="#1F293A"/>
<path d="M388.001 36.8584C383.212 36.8584 379.496 35.8511 376.854 33.8364C374.212 31.7887 372.825 28.8823 372.692 25.1172H379.727C379.958 27.231 380.702 28.7502 381.957 29.675C383.245 30.5997 385.16 31.0621 387.703 31.0621C389.718 31.0621 391.369 30.6988 392.657 29.9722C393.945 29.2126 394.59 28.0566 394.59 26.5044C394.59 25.9429 394.507 25.4475 394.342 25.0181C394.21 24.5558 393.913 24.1594 393.45 23.8292C392.988 23.4659 392.591 23.1851 392.261 22.987C391.931 22.7558 391.32 22.5246 390.428 22.2934C389.536 22.0292 388.859 21.8475 388.397 21.7484C387.935 21.6163 387.076 21.4017 385.821 21.1044C384.302 20.7411 383.047 20.4274 382.056 20.1631C381.098 19.8989 380.025 19.4861 378.836 18.9246C377.68 18.3631 376.755 17.7521 376.061 17.0916C375.401 16.398 374.839 15.5063 374.377 14.4164C373.914 13.2935 373.683 12.0219 373.683 10.6017C373.683 7.19994 374.922 4.59079 377.399 2.77429C379.909 0.924762 383.195 0 387.258 0C391.287 0 394.507 0.95779 396.918 2.87337C399.329 4.78895 400.667 7.5137 400.931 11.0476H394.045C393.846 9.3302 393.12 8.00911 391.865 7.08434C390.643 6.15958 389.09 5.6972 387.208 5.6972C385.259 5.6972 383.707 6.07701 382.551 6.83664C381.395 7.59627 380.817 8.6036 380.817 9.85863C380.817 11.2127 381.379 12.2036 382.502 12.8311C383.658 13.4586 385.672 14.0861 388.546 14.7136C390.263 15.0769 391.667 15.4237 392.757 15.754C393.846 16.0512 395.019 16.4971 396.274 17.0916C397.562 17.6531 398.553 18.2806 399.246 18.9742C399.973 19.6677 400.567 20.5925 401.03 21.7484C401.525 22.8714 401.773 24.1759 401.773 25.6622C401.773 29.1631 400.501 31.9043 397.958 33.886C395.415 35.8676 392.096 36.8584 388.001 36.8584Z" fill="#1F293A"/>
<path d="M403.79 15.11V10.6513H407.308V2.72475H413.897V10.6513H418.256V15.11H413.897V28.5851C413.897 30.2695 414.739 31.1117 416.423 31.1117L418.405 31.0621V36.0162C417.381 36.0823 415.977 36.1153 414.194 36.1153C412.245 36.1153 410.61 35.6529 409.289 34.7281C407.968 33.7704 407.308 32.2016 407.308 30.0218V15.11H403.79Z" fill="#1F293A"/>
<path d="M444.267 36.0658H437.777V33.0933H437.628C436.703 34.3483 435.68 35.2731 434.557 35.8676C433.467 36.4621 432.063 36.7593 430.346 36.7593C427.571 36.7593 425.408 35.9336 423.856 34.2823C422.304 32.6309 421.527 30.4016 421.527 27.5943V10.6513H428.215V26.4548C428.215 29.5264 429.619 31.0621 432.426 31.0621C433.979 31.0621 435.217 30.5337 436.142 29.4768C437.067 28.4199 437.529 27.0328 437.529 25.3154V10.6513H444.267V36.0658Z" fill="#1F293A"/>
<path d="M458.137 36.8089C454.933 36.8089 452.34 35.6034 450.359 33.1924C448.377 30.7484 447.386 27.4787 447.386 23.3833C447.386 19.42 448.394 16.1999 450.408 13.7228C452.456 11.2128 455.065 9.95771 458.236 9.95771C461.406 9.95771 463.801 11.2128 465.419 13.7228H465.568V0.644032H472.305V36.0658H465.815V32.7465H465.716C464.065 35.4547 461.538 36.8089 458.137 36.8089ZM459.623 31.1612C461.604 31.1612 463.107 30.4841 464.131 29.13C465.188 27.7759 465.716 25.9099 465.716 23.5319C465.716 18.1154 463.751 15.4072 459.821 15.4072C458.004 15.4072 456.617 16.1338 455.66 17.587C454.702 19.0402 454.223 20.9723 454.223 23.3833C454.223 25.8603 454.685 27.7759 455.61 29.13C456.568 30.4841 457.905 31.1612 459.623 31.1612Z" fill="#1F293A"/>
<path d="M476.685 36.0658V10.6513H483.423V36.0658H476.685ZM476.685 6.68802V0.644032H483.423V6.68802H476.685Z" fill="#1F293A"/>
<path d="M509.364 32.9942C506.887 35.5373 503.7 36.8089 499.802 36.8089C495.905 36.8089 492.718 35.5373 490.241 32.9942C487.764 30.4181 486.525 27.2145 486.525 23.3833C486.525 19.5521 487.764 16.365 490.241 13.8219C492.718 11.2458 495.905 9.95771 499.802 9.95771C503.7 9.95771 506.887 11.2458 509.364 13.8219C511.841 16.365 513.079 19.5521 513.079 23.3833C513.079 27.2145 511.841 30.4181 509.364 32.9942ZM499.802 31.6566C501.817 31.6566 503.386 30.9135 504.509 29.4273C505.665 27.908 506.243 25.8934 506.243 23.3833C506.243 20.8732 505.665 18.8586 504.509 17.3393C503.386 15.82 501.817 15.0604 499.802 15.0604C497.755 15.0604 496.169 15.82 495.046 17.3393C493.923 18.8255 493.362 20.8402 493.362 23.3833C493.362 25.8934 493.923 27.908 495.046 29.4273C496.169 30.9135 497.755 31.6566 499.802 31.6566Z" fill="#1F293A"/>
<path d="M535.582 20.5595C533.303 22.8383 530.496 23.9778 527.16 23.9778C523.824 23.9778 521.017 22.8383 518.738 20.5595C516.459 18.2806 515.32 15.4237 515.32 11.9889C515.32 8.55406 516.459 5.6972 518.738 3.41832C521.017 1.13944 523.824 0 527.16 0C530.496 0 533.303 1.13944 535.582 3.41832C537.861 5.6972 539 8.55406 539 11.9889C539 15.4237 537.861 18.2806 535.582 20.5595ZM527.16 22.1448C529.967 22.1448 532.279 21.187 534.096 19.2714C535.912 17.3558 536.82 14.9283 536.82 11.9889C536.82 9.08249 535.912 6.6715 534.096 4.75592C532.279 2.84034 529.967 1.88255 527.16 1.88255C524.385 1.88255 522.074 2.84034 520.224 4.75592C518.408 6.6715 517.499 9.08249 517.499 11.9889C517.499 14.8953 518.408 17.3228 520.224 19.2714C522.074 21.187 524.385 22.1448 527.16 22.1448ZM522.107 18.231V5.54858H528.25C529.538 5.54858 530.611 5.87885 531.47 6.5394C532.362 7.19994 532.807 8.10819 532.807 9.26414C532.807 10.7834 532.081 11.7907 530.628 12.2861V12.3852C531.618 12.6825 532.246 13.4421 532.51 14.6641C532.576 15.0604 532.626 15.5558 532.659 16.1503C532.692 16.7118 532.741 17.1411 532.807 17.4384C532.874 17.7356 532.973 17.9173 533.105 17.9833V18.231H529.736C529.604 18.165 529.422 17.1907 529.191 15.3081C529.092 14.1852 528.431 13.6237 527.209 13.6237H525.525V18.231H522.107ZM525.525 8.27332V11.1467H527.655C528.844 11.1467 529.439 10.6678 529.439 9.71001C529.439 8.75222 528.844 8.27332 527.655 8.27332H525.525Z" fill="#1F293A"/>
</svg>
